<?xml version="1.0" encoding="utf-8"?>
<svg viewBox="0 0 32 32" xmlns="http://www.w3.org/2000/svg">
  <g transform="matrix(0.937401, 0, 0, 0.937401, 1.001582, 1.00136)">
    <title>foot</title>
    <path d="M 1.094 5.059 C 1.094 8.898 5.25 11.297 8.574 9.377 C 10.117 8.487 11.067 6.841 11.067 5.059 C 11.067 1.221 6.912 -1.178 3.588 0.741 C 2.045 1.632 1.094 3.278 1.094 5.059 Z M 12.835 2.513 C 12.835 4.446 14.927 5.654 16.601 4.687 C 17.378 4.239 17.857 3.41 17.857 2.513 C 17.857 0.58 15.764 -0.628 14.091 0.339 C 13.314 0.787 12.835 1.616 12.835 2.513 Z M 20.014 3.15 C 20.014 5.082 22.106 6.29 23.78 5.324 C 24.557 4.876 25.036 4.047 25.036 3.15 C 25.036 1.217 22.943 0.009 21.269 0.975 C 20.492 1.424 20.014 2.253 20.014 3.15 Z M 25.884 6.368 C 25.884 8.301 27.977 9.509 29.65 8.542 C 30.427 8.094 30.906 7.265 30.906 6.368 C 30.906 4.435 28.814 3.227 27.14 4.193 C 26.363 4.642 25.884 5.471 25.884 6.368 Z M 33.068 26.241 C 33.068 30.012 30.011 33.069 26.241 33.069 L 5.759 33.069 C 1.988 33.069 -1.068 30.012 -1.068 26.241 L -1.068 5.759 C -1.068 1.989 1.988 -1.068 5.759 -1.068 L 26.241 -1.068 C 30.011 -1.068 33.068 1.989 33.068 5.759 Z M 12.345 15.418 C 11.96 15.418 11.599 15.493 11.26 15.64 C 10.919 15.787 10.629 15.991 10.385 16.249 C 10.142 16.507 9.949 16.809 9.809 17.156 C 9.668 17.503 9.599 17.876 9.599 18.274 L 9.599 29.278 C 9.599 29.678 9.687 30.043 9.864 30.375 C 10.042 30.706 10.263 30.993 10.528 31.239 C 10.794 31.482 11.086 31.67 11.404 31.803 C 11.721 31.935 12.027 32.001 12.322 32.001 L 21.865 32.001 C 22.263 32.001 22.632 31.932 22.972 31.791 C 23.311 31.651 23.607 31.455 23.857 31.205 C 24.108 30.953 24.304 30.662 24.444 30.33 C 24.585 29.998 24.654 29.632 24.654 29.234 L 24.654 18.23 C 24.654 17.935 24.563 17.621 24.377 17.289 C 24.193 16.957 23.96 16.654 23.68 16.382 C 23.4 16.109 23.101 15.879 22.784 15.696 C 22.466 15.511 22.183 15.418 21.931 15.418 L 19.606 15.418 C 19.563 15.418 19.462 15.496 19.308 15.65 C 19.153 15.806 18.958 15.972 18.721 16.15 C 18.484 16.327 18.223 16.493 17.935 16.647 C 17.647 16.803 17.349 16.88 17.037 16.88 C 16.728 16.88 16.426 16.803 16.131 16.647 C 15.835 16.493 15.562 16.327 15.311 16.15 C 15.061 15.972 14.843 15.806 14.659 15.65 C 14.473 15.496 14.345 15.418 14.27 15.418 Z M 12.145 8.532 C 11.82 8.532 11.547 8.592 11.326 8.71 C 11.105 8.828 10.994 9.086 10.994 9.485 C 10.994 9.662 11.056 9.866 11.182 10.094 C 11.308 10.322 11.414 10.504 11.503 10.636 C 11.74 10.976 12.09 11.395 12.554 11.899 C 13.02 12.4 13.525 12.879 14.072 13.337 C 14.618 13.795 15.175 14.186 15.743 14.51 C 16.311 14.836 16.817 14.997 17.259 14.997 C 17.702 14.997 18.19 14.847 18.721 14.545 C 19.252 14.241 19.768 13.891 20.271 13.493 C 20.772 13.094 21.222 12.7 21.621 12.308 C 22.019 11.917 22.301 11.625 22.463 11.433 C 22.536 11.359 22.632 11.241 22.75 11.08 C 22.868 10.917 22.987 10.744 23.105 10.558 C 23.218 10.381 23.323 10.196 23.414 10.005 C 23.503 9.821 23.547 9.669 23.547 9.551 C 23.547 9.212 23.422 8.957 23.17 8.788 C 22.92 8.618 22.632 8.532 22.307 8.532 Z" p-id="8359" style="fill: rgb(137, 218, 126); paint-order: fill; fill-rule: evenodd;"/>
    <path d="M 13.719 8.383 C 6.081 11.425 8.061 18.144 13.224 19.912 C 16.584 21.044 14.957 24.934 14.603 27.126 C 13.896 31.44 17.68 32.466 21.428 31.829 C 25.142 31.193 30.305 22.423 26.91 13.971 C 23.338 5.165 13.719 8.383 13.719 8.383 Z" p-id="8363" style="fill: rgb(117, 187, 56); visibility: hidden;"/>
  </g>
  <g style=""/>
</svg>